<svg width="1342" height="58" viewBox="0 0 1342 58" fill="none" xmlns="http://www.w3.org/2000/svg">
<path d="M52.2133 0.159997C53.4133 0.159997 54.0133 0.76 54.0133 1.96V54.82C54.0133 56.02 53.4133 56.62 52.2133 56.62H41.5933C40.3933 56.62 39.7933 56.02 39.7933 54.82V31.72H33.7933V46C33.7933 53.02 30.7333 56.02 22.0933 56.02H16.9933C15.7933 56.02 15.1933 55.42 15.1933 54.22V46.3C15.1933 45.1 15.7933 44.5 16.9933 44.5H18.1933C19.6333 44.5 20.2933 43.78 20.2933 42.34V2.32C20.2933 1.12 20.8933 0.519999 22.0333 0.519999C30.6733 0.519999 33.7933 3.52 33.7933 10.54V18.82H39.7933V1.96C39.7933 0.76 40.3933 0.159997 41.5933 0.159997H52.2133ZM15.6133 12.04C14.1733 12.04 13.5133 12.76 13.5133 14.2V54.22C13.5133 55.42 12.9133 56.02 11.7733 56.02C3.13328 56.02 0.0132816 53.02 0.0132816 46V10.54C0.0132816 3.52 3.07328 0.519999 11.7133 0.519999H16.8133C18.0133 0.519999 18.6133 1.12 18.6133 2.32V10.24C18.6133 11.44 18.0133 12.04 16.8133 12.04H15.6133ZM103.41 56.62C102.21 56.62 101.61 56.02 101.61 54.82V1.96C101.61 0.76 102.21 0.159997 103.41 0.159997H114.03C115.23 0.159997 115.83 0.76 115.83 1.96V54.82C115.83 56.02 115.23 56.62 114.03 56.62H103.41ZM95.6097 38.56C96.7497 38.38 97.3497 38.98 97.3497 40.12V49.3C97.3497 50.62 96.8097 51.34 95.6097 51.52L64.2297 56.32C63.0297 56.5 62.4297 55.9 62.4297 54.7V2.56C62.4297 1.36 63.0297 0.76 64.2297 0.76H93.3297C94.4097 0.76 94.9497 1.3 94.9497 2.38V10.9C94.9497 11.98 94.4097 12.52 93.3297 12.52H76.6497V41.44L95.6097 38.56ZM176.206 0.159997C177.406 0.159997 178.006 0.76 178.006 1.96V54.82C178.006 56.02 177.406 56.62 176.206 56.62H168.586C167.386 56.62 166.786 56.02 166.786 54.82V1.96C166.786 0.76 167.386 0.159997 168.586 0.159997H176.206ZM162.286 0.279999C163.486 0.279999 164.086 0.879998 164.086 2.08V54.58C164.086 55.78 163.486 56.38 162.286 56.38H154.786C153.586 56.38 152.986 55.78 152.986 54.58V31.3H149.686V45.46C149.686 52.48 149.026 55.48 140.386 55.48H137.266C136.426 55.48 136.066 55.12 136.066 54.28V45.16C136.066 44.32 136.426 43.96 137.266 43.96H137.446C138.406 43.96 138.586 43.36 138.586 42.4V1.96C138.586 0.939997 139.306 0.76 140.326 0.76C148.966 0.76 149.686 3.76 149.686 10.78V19.78H152.986V2.08C152.986 0.879998 153.586 0.279999 154.786 0.279999H162.286ZM136.906 11.08C136.906 11.92 136.546 12.28 135.706 12.28H135.526C134.446 12.28 134.386 12.76 134.386 13.84V53.98C134.386 55 133.786 55.48 132.646 55.48C124.006 55.48 123.286 52.48 123.286 45.46V10.78C123.286 3.76 123.946 0.76 132.586 0.76H135.706C136.726 0.76 136.906 0.939997 136.906 1.96V11.08ZM237.663 0.159997C238.863 0.159997 239.463 0.76 239.463 1.96V54.82C239.463 56.02 238.863 56.62 237.663 56.62H227.043C225.843 56.62 225.243 56.02 225.243 54.82V30.64H217.443C216.303 30.64 215.643 30.1 215.643 28.96V19.66C215.643 18.4 216.183 17.74 217.443 17.74H225.243V1.96C225.243 0.76 225.843 0.159997 227.043 0.159997H237.663ZM210.063 0.459996C211.263 0.459996 211.862 1.06 211.683 2.26L204.303 53.8C203.943 56.5 201.843 57.04 199.683 55.6L185.583 46C184.563 45.34 184.263 44.8 184.263 43.42V30.52C184.263 29.38 185.103 28.9 186.063 29.56L192.543 34.06L197.103 2.26C197.283 1.06 197.883 0.459996 199.083 0.459996H210.063ZM219.423 39.7C220.623 40.54 220.923 41.08 220.923 42.34V53.74C220.923 56.14 219.423 56.62 217.623 55.36L207.783 48.64C207.063 48.16 206.883 47.5 207.063 46.24L208.683 34.66C208.863 33.4 209.703 33.04 210.903 33.88L219.423 39.7ZM249.079 34C247.879 34.06 247.279 33.4 247.279 32.2V2.56C247.279 1.36 247.879 0.76 249.079 0.76H299.539C300.619 0.76 301.159 1.3 301.159 2.38V10.9C301.159 11.98 300.619 12.52 299.539 12.52H262.099V22.24H299.719C300.859 22.24 301.459 22.66 301.459 23.8V32.08C301.459 33.28 300.799 34 299.719 34H249.079ZM300.079 44.98C301.279 44.98 301.879 45.58 301.879 46.78V54.58C301.879 55.78 301.279 56.38 300.079 56.38H248.479C247.279 56.38 246.679 55.78 246.679 54.58V46.78C246.679 45.58 247.279 44.98 248.479 44.98H267.139V38.2C267.139 37 267.739 36.4 268.939 36.4H279.619C280.819 36.4 281.419 37 281.419 38.2V44.98H300.079ZM380.47 27.16C381.67 27.16 382.27 27.76 382.27 28.96V35.74C382.27 36.94 381.67 37.54 380.47 37.54H328.87C327.67 37.54 327.07 36.94 327.07 35.74V28.96C327.07 27.76 327.67 27.16 328.87 27.16H347.53V23.86H329.47C328.27 23.86 327.67 23.26 327.67 22.06V2.14C327.67 0.939997 328.27 0.339998 329.47 0.339998H339.79C340.99 0.339998 341.59 0.939997 341.59 2.14V4.54H364.21C365.47 4.54 366.07 5.14 366.07 6.34V10.54C366.07 11.74 365.47 12.34 364.21 12.34H341.59V15.76H367.75V2.14C367.75 0.939997 368.35 0.339998 369.55 0.339998H379.87C381.07 0.339998 381.67 0.939997 381.67 2.14V22.06C381.67 23.26 381.07 23.86 379.87 23.86H361.81V27.16H380.47ZM379.87 45.82C381.07 45.82 381.67 46.42 381.67 47.62V54.58C381.67 55.78 381.07 56.38 379.87 56.38H329.47C328.27 56.38 327.67 55.78 327.67 54.58V42.34C327.67 41.14 328.27 40.54 329.47 40.54H340.21C341.41 40.54 342.01 41.14 342.01 42.34V45.82H379.87ZM460.26 0.159997C461.46 0.159997 462.06 0.76 462.06 1.96V33.76C462.06 34.96 461.46 35.56 460.26 35.56H449.64C448.44 35.56 447.84 34.96 447.84 33.76V23.38H443.46C443.58 23.74 443.64 24.22 443.64 24.82V31.78C443.64 33.76 442.92 34.18 441 33.64L429.78 30.64C428.7 30.34 428.4 29.8 428.7 28.72L430.86 20.92C431.16 19.78 431.94 19.66 433.08 19.96L441.84 22.3H441.9C441.84 22.18 441.84 21.94 441.84 21.76V13.96C441.84 12.7 442.38 11.98 443.64 11.98H447.84V1.96C447.84 0.76 448.44 0.159997 449.64 0.159997H460.26ZM408.48 29.68C407.34 29.32 407.16 28.84 407.16 27.46V19.18C407.16 17.98 407.76 17.68 408.96 18.04L415.44 20.02L417.84 11.26H409.26C408.06 11.26 407.46 10.66 407.46 9.46V2.26C407.46 1.06 408.06 0.459996 409.26 0.459996H439.44C440.64 0.459996 441.24 1.06 441.24 2.26V9.46C441.24 10.66 440.64 11.26 439.44 11.26H431.76L426.12 31.84C425.58 33.82 424.2 34.3 421.86 33.64L408.48 29.68ZM460.26 37.66C461.46 37.66 462.06 38.26 462.06 39.46V54.82C462.06 56.02 461.46 56.62 460.26 56.62H449.58C448.38 56.62 447.78 56.02 447.78 54.82V47.98H410.1C408.9 47.98 408.3 47.38 408.3 46.18V39.46C408.3 38.26 408.9 37.66 410.1 37.66H460.26ZM506.631 22C508.071 22 508.731 21.28 508.731 19.84V2.02C508.731 0.819999 509.331 0.219999 510.471 0.219999C519.111 0.219999 522.231 2.92 522.231 9.34V9.76H528.231V1.96C528.231 0.76 528.831 0.159997 530.031 0.159997H540.651C541.851 0.159997 542.451 0.76 542.451 1.96V30.82C542.451 32.02 541.851 32.62 540.651 32.62H530.031C528.831 32.62 528.231 32.02 528.231 30.82V20.98H522.231V22.42C522.231 28.84 519.171 31.54 510.531 31.54H505.431C504.231 31.54 503.631 30.94 503.631 29.74V23.8C503.631 22.6 504.231 22 505.431 22H506.631ZM500.211 31.54C491.571 31.54 488.451 28.84 488.451 22.42V9.34C488.451 2.92 491.511 0.219999 500.151 0.219999H505.251C506.451 0.219999 507.051 0.819999 507.051 2.02V7.96C507.051 9.16 506.451 9.76 505.251 9.76H504.051C502.611 9.76 501.951 10.48 501.951 11.92V29.74C501.951 30.94 501.351 31.54 500.211 31.54ZM515.031 34.42C516.231 34.42 516.831 35.02 516.831 36.22V54.58C516.831 55.78 516.231 56.38 515.031 56.38H503.691C502.491 56.38 501.891 55.78 501.891 54.58V49.96C501.891 48.76 502.491 48.16 503.691 48.16H505.731V44.98H500.211V54.7C500.211 55.9 499.611 56.5 498.411 56.5H490.731C489.531 56.5 488.931 55.9 488.931 54.7V36.22C488.931 35.02 489.531 34.42 490.731 34.42H498.411C499.611 34.42 500.211 35.02 500.211 36.22V37.84H505.731V36.22C505.731 35.02 506.331 34.42 507.531 34.42H515.031ZM537.471 34.42C538.971 34.42 539.451 35.2 538.791 36.64L531.411 55.24C530.871 56.62 529.971 56.92 528.351 56.32L520.671 53.5C519.351 53.02 518.751 52.36 518.751 51.1V43.78C518.751 42.64 519.411 42.28 520.431 42.64L523.431 43.78L526.551 35.8C527.031 34.72 527.631 34.42 529.071 34.42H537.471ZM541.431 45.88C542.391 46.24 542.751 46.72 542.751 47.8V54.88C542.751 56.26 541.971 56.68 540.651 56.2L534.951 54.1C534.171 53.8 533.931 53.32 534.231 52.54L536.931 45.82C537.291 44.92 537.891 44.56 538.971 44.98L541.431 45.88ZM602.467 11.44C603.667 11.44 604.267 12.04 604.267 13.24V20.5C604.267 21.7 603.667 22.3 602.467 22.3H552.067C550.867 22.3 550.267 21.7 550.267 20.5V2.26C550.267 1.06 550.867 0.459996 552.067 0.459996H563.287C564.487 0.459996 565.087 1.06 565.087 2.26V11.44H602.467ZM551.467 36.46C550.267 36.46 549.667 35.86 549.667 34.66V26.98C549.667 25.78 550.267 25.18 551.467 25.18H603.067C604.267 25.18 604.867 25.78 604.867 26.98V34.66C604.867 35.86 604.267 36.46 603.067 36.46H551.467ZM602.467 45.22C603.667 45.22 604.267 45.82 604.267 47.02V54.58C604.267 55.78 603.667 56.38 602.467 56.38H552.067C550.867 56.38 550.267 55.78 550.267 54.58V40.96C550.267 39.76 550.867 39.16 552.067 39.16H563.287C564.487 39.16 565.087 39.76 565.087 40.96V45.22H602.467ZM642.778 21.94C634.618 21.94 630.358 19.24 630.358 12.7V10C630.358 3.46 634.618 0.219999 642.778 0.219999H667.258C668.458 0.219999 669.058 0.819999 669.058 2.02V7.18C669.058 8.38 668.458 8.98 667.258 8.98H646.318C644.938 8.98 644.578 9.1 644.578 10.24V11.92C644.578 13.06 644.938 13.18 646.318 13.18H668.998C670.378 13.18 670.738 12.82 670.738 11.68V2.02C670.738 0.819999 671.338 0.219999 672.538 0.219999C680.698 0.219999 684.958 3.46 684.958 10V12.7C684.958 19.24 680.698 21.94 672.538 21.94H642.778ZM683.698 24.7C684.718 24.7 685.258 25.24 685.258 26.26V33.22C685.258 34.24 684.718 34.78 683.698 34.78H675.958V37.96H682.858C684.058 37.96 684.658 38.56 684.658 39.76V54.82C684.658 56.02 684.058 56.62 682.858 56.62H671.638C670.438 56.62 669.838 56.02 669.838 54.82V47.92H632.458C631.258 47.92 630.658 47.32 630.658 46.12V39.76C630.658 38.56 631.258 37.96 632.458 37.96H639.118V34.78H631.618C630.598 34.78 630.058 34.24 630.058 33.22V26.26C630.058 25.24 630.598 24.7 631.618 24.7H683.698ZM662.278 34.78H652.798V37.96H662.278V34.78ZM693.854 20.98C692.714 20.92 692.294 20.32 692.294 19.18V13.18C692.294 11.98 692.894 11.5 694.094 11.56L707.894 12.46L711.074 9.46H694.274C693.074 9.46 692.474 8.86 692.474 7.66V2.2C692.474 0.999996 693.074 0.399997 694.274 0.399997H744.674C745.874 0.399997 746.474 0.999996 746.474 2.2V7.66C746.474 8.86 745.874 9.46 744.674 9.46H727.274L715.394 20.92C714.194 22.12 713.534 22.24 711.734 22.12L693.854 20.98ZM744.734 12.82C746.294 12.94 746.654 13.6 746.654 15.1V20.68C746.654 21.88 746.174 22.24 744.914 22.12L721.094 20.2C719.834 20.08 719.594 19.18 720.554 18.28L726.194 12.7C727.094 11.8 727.574 11.62 729.134 11.8L744.734 12.82ZM745.274 24.1C746.474 24.1 747.074 24.7 747.074 25.9V31.48C747.074 32.68 746.474 33.28 745.274 33.28H693.674C692.474 33.28 691.874 32.68 691.874 31.48V25.9C691.874 24.7 692.474 24.1 693.674 24.1H745.274ZM744.674 35.44C745.874 35.44 746.474 36.04 746.474 37.24V54.58C746.474 55.78 745.874 56.38 744.674 56.38H710.054C708.854 56.38 708.254 55.78 708.254 54.58V50.2C708.254 49 708.854 48.4 710.054 48.4H732.374V45.94H706.574V54.7C706.574 55.9 705.974 56.5 704.774 56.5H694.274C693.074 56.5 692.474 55.9 692.474 54.7V37.24C692.474 36.04 693.074 35.44 694.274 35.44H704.774C705.974 35.44 706.574 36.04 706.574 37.24V38.26H732.374V37.24C732.374 36.04 732.974 35.44 734.174 35.44H744.674ZM810.931 20.44C812.131 20.44 812.731 21.04 812.731 22.24V31.48C812.731 32.68 812.131 33.28 810.931 33.28H806.551V54.82C806.551 56.02 805.951 56.62 804.751 56.62H794.131C792.931 56.62 792.331 56.02 792.331 54.82V1.96C792.331 0.76 792.931 0.159997 794.131 0.159997H804.751C805.951 0.159997 806.551 0.76 806.551 1.96V20.44H810.931ZM784.591 0.76C785.791 0.76 786.391 1.36 786.391 2.56V11.32C786.391 12.58 786.271 13.9 785.971 15.34L776.971 54.58C776.731 55.78 776.191 56.38 774.991 56.38H764.131C762.931 56.38 762.271 55.78 762.511 54.58L771.871 13.72H755.491C754.291 13.72 753.691 13.12 753.691 11.92V2.56C753.691 1.36 754.291 0.76 755.491 0.76H784.591ZM868.547 13.06C869.687 13.06 870.287 13.48 870.287 14.62V19.78C870.287 20.98 869.627 21.7 868.547 21.7H817.907C816.707 21.7 816.107 21.1 816.107 19.9V2.26C816.107 1.06 816.707 0.459996 817.907 0.459996H868.367C869.447 0.459996 869.987 0.999996 869.987 2.08V7.48C869.987 8.56 869.447 9.1 868.367 9.1H830.327V13.06H868.547ZM817.307 34.84C816.107 34.84 815.507 34.24 815.507 33.04V26.56C815.507 25.36 816.107 24.76 817.307 24.76H868.907C870.107 24.76 870.707 25.36 870.707 26.56V33.04C870.707 34.24 870.107 34.84 868.907 34.84H817.307ZM817.907 47.92C816.707 47.92 816.107 47.32 816.107 46.12V39.76C816.107 38.56 816.707 37.96 817.907 37.96H868.307C869.507 37.96 870.107 38.56 870.107 39.76V54.82C870.107 56.02 869.507 56.62 868.307 56.62H855.887C854.687 56.62 854.087 56.02 854.087 54.82V47.92H817.907ZM898.058 12.16C897.038 12.16 896.498 11.62 896.498 10.6V2.32C896.498 1.3 897.038 0.76 898.058 0.76H948.938C949.958 0.76 950.498 1.3 950.498 2.32V10.6C950.498 11.62 949.958 12.16 948.938 12.16H898.058ZM898.058 37.36C897.038 37.36 896.498 36.82 896.498 35.8V27.82C896.498 26.8 897.038 26.26 898.058 26.26H905.558L904.898 16.12C904.838 14.92 905.498 14.32 906.698 14.32H917.138C918.338 14.32 918.878 14.92 918.938 16.12L919.538 26.26H927.218L927.818 16.12C927.878 14.92 928.418 14.32 929.618 14.32H940.058C941.258 14.32 941.918 14.92 941.858 16.12L941.198 26.26H948.938C949.958 26.26 950.498 26.8 950.498 27.82V35.8C950.498 36.82 949.958 37.36 948.938 37.36H898.058ZM949.298 44.38C950.498 44.38 951.098 44.98 951.098 46.18V54.58C951.098 55.78 950.498 56.38 949.298 56.38H897.698C896.498 56.38 895.898 55.78 895.898 54.58V46.18C895.898 44.98 896.498 44.38 897.698 44.38H949.298ZM999.894 56.62C998.694 56.62 998.094 56.02 998.094 54.82V1.96C998.094 0.76 998.694 0.159997 999.894 0.159997H1010.51C1011.71 0.159997 1012.31 0.76 1012.31 1.96V54.82C1012.31 56.02 1011.71 56.62 1010.51 56.62H999.894ZM992.094 40.72C993.294 40.6 993.834 41.14 993.834 42.22V50.8C993.834 52.06 993.354 52.54 992.094 52.66L960.114 56.38C958.914 56.5 958.314 55.78 958.314 54.58V23.02C958.314 21.82 958.914 21.22 960.114 21.22H977.934V11.92H960.114C958.914 11.92 958.314 11.32 958.314 10.12V2.56C958.314 1.36 958.914 0.76 960.114 0.76H989.634C990.834 0.76 991.434 1.36 991.434 2.56V29.98C991.434 31.18 990.834 31.78 989.634 31.78H971.754V43.12L992.094 40.72ZM1072.33 0.159997C1073.53 0.159997 1074.13 0.76 1074.13 1.96V54.82C1074.13 56.02 1073.53 56.62 1072.33 56.62H1061.71C1060.51 56.62 1059.91 56.02 1059.91 54.82V1.96C1059.91 0.76 1060.51 0.159997 1061.71 0.159997H1072.33ZM1033.63 11.98V54.1C1033.63 55.3 1033.03 55.9 1031.83 55.9H1021.93C1020.73 55.9 1020.13 55.3 1020.13 54.1V2.56C1020.13 1.36 1020.73 0.76 1021.93 0.76H1036.93C1038.13 0.76 1038.73 1.36 1038.73 2.56V10.18C1038.73 11.38 1038.13 11.98 1036.93 11.98H1033.63ZM1052.11 0.76C1053.31 0.76 1053.91 1.36 1053.91 2.56V54.58C1053.91 55.78 1053.31 56.26 1052.11 56.08L1037.05 53.68C1035.79 53.5 1035.31 52.96 1035.31 51.7V42.76C1035.31 41.68 1035.91 41.2 1036.99 41.38L1040.41 41.92V2.56C1040.41 1.36 1041.01 0.76 1042.21 0.76H1052.11ZM1134.15 0.159997C1135.35 0.159997 1135.95 0.76 1135.95 1.96V32.02C1135.95 33.22 1135.35 33.82 1134.15 33.82H1123.53C1122.33 33.82 1121.73 33.22 1121.73 32.02V21.58H1115.73V23.62C1115.73 30.04 1112.67 32.74 1104.03 32.74H1098.93C1097.73 32.74 1097.13 32.14 1097.13 30.94V24.52C1097.13 23.32 1097.73 22.72 1098.93 22.72H1100.13C1101.57 22.72 1102.23 22 1102.23 20.56V2.02C1102.23 0.819999 1102.83 0.219999 1103.97 0.219999C1112.61 0.219999 1115.73 2.92 1115.73 9.34V9.76H1121.73V1.96C1121.73 0.76 1122.33 0.159997 1123.53 0.159997H1134.15ZM1093.71 32.74C1085.07 32.74 1081.95 30.04 1081.95 23.62V9.34C1081.95 2.92 1085.01 0.219999 1093.65 0.219999H1098.75C1099.95 0.219999 1100.55 0.819999 1100.55 2.02V8.44C1100.55 9.64 1099.95 10.24 1098.75 10.24H1097.55C1096.11 10.24 1095.45 10.96 1095.45 12.4V30.94C1095.45 32.14 1094.85 32.74 1093.71 32.74ZM1134.15 35.92C1135.35 35.92 1135.95 36.52 1135.95 37.72V54.58C1135.95 55.78 1135.35 56.38 1134.15 56.38H1100.19C1098.93 56.38 1098.45 55.84 1098.45 54.58V49.36C1098.45 48.28 1099.05 47.8 1100.13 47.8H1121.73V44.5H1096.77V54.7C1096.77 55.9 1096.17 56.5 1094.97 56.5H1084.23C1083.03 56.5 1082.43 55.9 1082.43 54.7V37.72C1082.43 36.52 1083.03 35.92 1084.23 35.92H1134.15ZM1218.98 8.38C1220.18 8.38 1220.78 8.98 1220.78 10.18V18.52C1220.78 19.72 1220.18 20.32 1218.98 20.32H1214.6V27.34C1214.6 28.54 1214 29.14 1212.8 29.14H1202.18C1200.98 29.14 1200.38 28.54 1200.38 27.34V1.96C1200.38 0.76 1200.98 0.159997 1202.18 0.159997H1212.8C1214 0.159997 1214.6 0.76 1214.6 1.96V8.38H1218.98ZM1164.14 28.12C1162.94 28.18 1162.34 27.52 1162.34 26.32V2.26C1162.34 1.06 1162.94 0.459996 1164.14 0.459996H1193.84C1194.92 0.459996 1195.46 0.999996 1195.46 2.08V8.44C1195.46 9.52 1194.92 10.06 1193.84 10.06H1176.56V18.52H1196.12C1197.26 18.52 1197.86 18.94 1197.86 20.08V26.2C1197.86 27.4 1197.2 28.12 1196.12 28.12H1164.14ZM1189.82 48.64C1190.72 48.64 1191.2 49.12 1191.2 50.02V55C1191.2 55.9 1190.72 56.38 1189.82 56.38H1164.14C1162.94 56.38 1162.34 55.78 1162.34 54.58V42.34C1162.34 41.14 1162.94 40.54 1164.14 40.54H1175.78V38.74H1163.72C1162.82 38.74 1162.34 38.26 1162.34 37.36V32.32C1162.34 31.42 1162.82 30.94 1163.72 30.94H1187C1188.2 30.94 1188.8 31.54 1188.8 32.74V45.04C1188.8 46.24 1188.2 46.84 1187 46.84H1175.36V48.64H1189.82ZM1212.8 30.94C1214 30.94 1214.6 31.54 1214.6 32.74V54.82C1214.6 56.02 1214 56.62 1212.8 56.62H1201.58C1200.38 56.62 1199.78 56.02 1199.78 54.82V41.8H1192.76C1191.56 41.8 1190.96 41.2 1190.96 40V32.74C1190.96 31.54 1191.56 30.94 1192.76 30.94H1212.8ZM1280.79 10.84C1281.99 10.84 1282.59 11.44 1282.59 12.64V20.98C1282.59 22.18 1281.99 22.78 1280.79 22.78H1276.41V30.82C1276.41 32.02 1275.81 32.62 1274.61 32.62H1263.99C1262.79 32.62 1262.19 32.02 1262.19 30.82V1.96C1262.19 0.76 1262.79 0.159997 1263.99 0.159997H1274.61C1275.81 0.159997 1276.41 0.76 1276.41 1.96V10.84H1280.79ZM1225.35 12.52C1224.15 12.52 1223.55 11.92 1223.55 10.72V2.56C1223.55 1.36 1224.15 0.76 1225.35 0.76H1255.05C1256.25 0.76 1256.85 1.36 1256.85 2.56V10.72C1256.85 12.52 1256.61 13.78 1255.77 15.1L1245.93 30.52C1245.27 31.6 1244.43 32.32 1243.23 32.32H1231.11C1230.15 32.32 1229.67 31.36 1230.21 30.52L1241.73 12.52H1225.35ZM1265.19 35.2C1273.35 35.2 1277.61 37.84 1277.61 44.08V47.74C1277.61 53.98 1273.35 56.62 1265.19 56.62H1242.93C1241.73 56.62 1241.13 56.02 1241.13 54.82V49.66C1241.13 48.46 1241.73 47.86 1242.93 47.86H1261.65C1263.03 47.86 1263.39 47.74 1263.39 46.6V45.22C1263.39 44.08 1263.03 43.96 1261.65 43.96H1241.19C1239.81 43.96 1239.45 44.32 1239.45 45.46V54.82C1239.45 56.02 1238.85 56.62 1237.65 56.62C1229.49 56.62 1225.23 53.98 1225.23 47.74V44.08C1225.23 37.84 1229.49 35.2 1237.65 35.2H1265.19ZM1308.77 19.9C1309.07 18.76 1309.85 18.64 1310.99 18.94L1319.75 21.28V12.28C1319.75 11.02 1320.29 10.3 1321.55 10.3H1325.75V1.96C1325.75 0.76 1326.35 0.159997 1327.55 0.159997H1338.17C1339.37 0.159997 1339.97 0.76 1339.97 1.96V32.02C1339.97 33.22 1339.37 33.82 1338.17 33.82H1327.55C1326.35 33.82 1325.75 33.22 1325.75 32.02V22.9H1321.49C1321.55 23.14 1321.55 23.44 1321.55 23.8V30.76C1321.55 32.74 1320.83 33.16 1318.91 32.62L1307.69 29.62C1306.61 29.32 1306.31 28.78 1306.61 27.7L1308.77 19.9ZM1304.03 30.82C1303.49 32.8 1302.11 33.28 1299.77 32.62L1286.39 28.66C1285.25 28.3 1285.07 27.82 1285.07 26.44V18.16C1285.07 16.96 1285.67 16.66 1286.87 17.02L1293.35 19L1295.51 11.26H1287.17C1285.97 11.26 1285.37 10.66 1285.37 9.46V2.26C1285.37 1.06 1285.97 0.459996 1287.17 0.459996H1317.35C1318.55 0.459996 1319.15 1.06 1319.15 2.26V9.46C1319.15 10.66 1318.55 11.26 1317.35 11.26H1309.43L1304.03 30.82ZM1328.75 35.68C1336.91 35.68 1341.17 38.32 1341.17 44.56V47.74C1341.17 53.98 1336.91 56.62 1328.75 56.62H1304.75C1303.55 56.62 1302.95 56.02 1302.95 54.82V49.84C1302.95 48.64 1303.55 48.04 1304.75 48.04H1325.21C1326.59 48.04 1326.95 47.92 1326.95 46.78V45.52C1326.95 44.38 1326.59 44.26 1325.21 44.26H1303.01C1301.63 44.26 1301.27 44.62 1301.27 45.76V54.82C1301.27 56.02 1300.67 56.62 1299.47 56.62C1291.31 56.62 1287.05 53.98 1287.05 47.74V44.56C1287.05 38.32 1291.31 35.68 1299.47 35.68H1328.75Z" fill="white"/>
</svg>
